<svg width="22" height="25" viewBox="0 0 22 25" fill="none" xmlns="http://www.w3.org/2000/svg">
<path d="M7.3675 24.2573C6.5815 24.2147 5.84185 23.8719 5.30125 23.2998C4.65449 22.6776 4.07735 21.9868 3.58 21.2398C2.8031 20.1273 2.18899 18.9096 1.75625 17.6235C1.26651 16.2399 1.00887 14.7849 0.993753 13.3173C0.955706 11.8772 1.31233 10.4542 2.025 9.20228C2.54697 8.29991 3.29149 7.54635 4.1875 7.01354C5.07361 6.48299 6.08477 6.19741 7.1175 6.18603C7.89602 6.23209 8.66107 6.41004 9.38 6.71229C9.95375 6.96478 10.5563 7.14229 11.175 7.23979C11.8575 7.09681 12.5244 6.88748 13.1663 6.61479C13.9258 6.3182 14.7301 6.15211 15.545 6.12354C15.6538 6.12354 15.7613 6.12353 15.865 6.13603C17.6525 6.18728 19.315 7.06479 20.365 8.51104C19.5455 8.94932 18.8637 9.60627 18.3952 10.4089C17.9267 11.2114 17.6899 12.1282 17.7113 13.0573C17.7031 13.7677 17.8456 14.4718 18.1293 15.1231C18.4131 15.7745 18.8317 16.3583 19.3575 16.836C19.8363 17.2923 20.3938 17.6573 21.0025 17.9148C20.8775 18.2898 20.7338 18.6523 20.5813 19.0173C20.235 19.8239 19.8078 20.5932 19.3063 21.3135C18.832 22.0351 18.2799 22.7025 17.66 23.3035C17.0945 23.8646 16.3408 24.1956 15.545 24.2323C14.8704 24.2024 14.2078 24.0441 13.5925 23.766C12.929 23.477 12.216 23.3187 11.4925 23.2998C10.7486 23.3144 10.0145 23.4719 9.33 23.7635C8.73881 24.0303 8.10719 24.1963 7.46125 24.2548L7.3675 24.2573ZM11.305 6.12354C11.2113 6.12354 11.1175 6.12353 11.0238 6.11228C11.004 5.96349 10.9936 5.81362 10.9925 5.66354C11.0334 4.41495 11.5213 3.22258 12.3675 2.30354C12.8408 1.77535 13.4144 1.34661 14.055 1.04229C14.652 0.734978 15.3043 0.550106 15.9738 0.498535C15.9925 0.662285 15.9925 0.822285 15.9925 0.974785C15.9749 2.20374 15.5132 3.38482 14.6925 4.29979C14.2952 4.83256 13.786 5.2719 13.2008 5.58697C12.6156 5.90203 11.9685 6.08517 11.305 6.12354Z" fill="#F8F8F8"/>
</svg>
