<svg width="33" height="33" viewBox="0 0 33 33" fill="none" xmlns="http://www.w3.org/2000/svg">
<circle cx="16.8158" cy="16.1842" r="16.1842" fill="#F5EBFF"/>
<path d="M16.8158 13.0244C15.0757 13.0244 13.6556 14.4445 13.6556 16.1847C13.6556 17.9248 15.0757 19.3449 16.8158 19.3449C18.5559 19.3449 19.976 17.9248 19.976 16.1847C19.976 14.4445 18.5559 13.0244 16.8158 13.0244ZM26.294 16.1847C26.294 14.876 26.3059 13.5792 26.2324 12.2729C26.1589 10.7556 25.8128 9.40902 24.7033 8.2995C23.5914 7.18761 22.2472 6.84385 20.7299 6.77035C19.4213 6.69686 18.1245 6.70871 16.8182 6.70871C15.5096 6.70871 14.2128 6.69686 12.9065 6.77035C11.3892 6.84385 10.0426 7.18998 8.93314 8.2995C7.82127 9.41139 7.47751 10.7556 7.40402 12.2729C7.33053 13.5816 7.34238 14.8784 7.34238 16.1847C7.34238 17.491 7.33053 18.7902 7.40402 20.0965C7.47751 21.6138 7.82364 22.9604 8.93314 24.0699C10.045 25.1818 11.3892 25.5255 12.9065 25.599C14.2151 25.6725 15.5119 25.6607 16.8182 25.6607C18.1268 25.6607 19.4236 25.6725 20.7299 25.599C22.2472 25.5255 23.5938 25.1794 24.7033 24.0699C25.8151 22.958 26.1589 21.6138 26.2324 20.0965C26.3082 18.7902 26.294 17.4934 26.294 16.1847ZM16.8158 21.0471C14.125 21.0471 11.9535 18.8755 11.9535 16.1847C11.9535 13.4939 14.125 11.3222 16.8158 11.3222C19.5066 11.3222 21.6782 13.4939 21.6782 16.1847C21.6782 18.8755 19.5066 21.0471 16.8158 21.0471ZM21.8773 12.2587C21.2491 12.2587 20.7418 11.7513 20.7418 11.1231C20.7418 10.4948 21.2491 9.98749 21.8773 9.98749C22.5056 9.98749 23.0129 10.4948 23.0129 11.1231C23.0131 11.2723 22.9839 11.42 22.9269 11.5579C22.8699 11.6957 22.7862 11.821 22.6807 11.9265C22.5753 12.032 22.45 12.1156 22.3121 12.1726C22.1743 12.2296 22.0265 12.2589 21.8773 12.2587Z" fill="#3C1D59"/>
</svg>
