<svg width="34" height="33" viewBox="0 0 34 33" fill="none" xmlns="http://www.w3.org/2000/svg">
<circle cx="17" cy="16.1842" r="16.1842" fill="#F5EBFF"/>
<path d="M11.0852 12.1365C12.1038 12.1365 12.9295 11.3108 12.9295 10.2924C12.9295 9.27388 12.1038 8.44824 11.0852 8.44824C10.0666 8.44824 9.24084 9.27388 9.24084 10.2924C9.24084 11.3108 10.0666 12.1365 11.0852 12.1365Z" fill="#3C1D59"/>
<path d="M14.671 13.5341V23.7653H17.848V18.7057C17.848 17.3707 18.0992 16.0778 19.7547 16.0778C21.3875 16.0778 21.4077 17.6041 21.4077 18.79V23.7661H24.5864V18.1554C24.5864 15.3993 23.993 13.2812 20.7713 13.2812C19.2245 13.2812 18.1877 14.13 17.7637 14.9332H17.7207V13.5341H14.671ZM9.49377 13.5341H12.6758V23.7653H9.49377V13.5341Z" fill="#3C1D59"/>
</svg>
