<svg width="30" height="30" viewBox="0 0 30 30" fill="none" xmlns="http://www.w3.org/2000/svg">
<path d="M16.1925 14.5201L19.8888 10.8239L7.95 4.11387C7.15875 3.68637 6.4175 3.62637 5.7675 4.09387L16.1925 14.5201ZM20.5188 18.8476L24.3612 16.6864C25.1112 16.2664 25.5225 15.6714 25.5225 15.0114C25.5225 14.3526 25.1112 13.7564 24.3625 13.3364L20.8838 11.3826L16.9675 15.2976L20.5188 18.8476ZM5.125 5.00262C5.045 5.24887 5 5.52387 5 5.82512V24.2064C5 24.6826 5.105 25.0926 5.295 25.4189L15.4163 15.2964L5.125 5.00262ZM16.1925 16.0714L6.1275 26.1376C6.32 26.2114 6.5275 26.2501 6.74625 26.2501C7.13625 26.2501 7.5425 26.1351 7.95625 25.9051L19.525 19.4089L16.1925 16.0714Z" fill="#F8F8F8"/>
</svg>
