<svg width="33" height="33" viewBox="0 0 33 33" fill="none" xmlns="http://www.w3.org/2000/svg">
<circle cx="16.4078" cy="16.1842" r="16.1842" fill="#F5EBFF"/>
<g clip-path="url(#clip0_2_390)">
<path d="M16.4078 9.9541C8.45486 9.9541 8.31567 10.6613 8.31567 16.1849C8.31567 21.7085 8.45486 22.4157 16.4078 22.4157C24.3607 22.4157 24.4999 21.7085 24.4999 16.1849C24.4999 10.6613 24.3607 9.9541 16.4078 9.9541ZM19.0013 16.4552L15.3679 18.1513C15.0499 18.2985 14.7894 18.1335 14.7894 17.7823V14.5876C14.7894 14.2372 15.0499 14.0713 15.3679 14.2186L19.0013 15.9147C19.3193 16.0635 19.3193 16.3063 19.0013 16.4552Z" fill="#3C1D59"/>
</g>
<defs>
<clipPath id="clip0_2_390">
<rect width="16.1842" height="16.184" fill="white" transform="translate(8.31567 8.09277)"/>
</clipPath>
</defs>
</svg>
